<svg xmlns="http://www.w3.org/2000/svg" viewBox="0 0 1555.4 353.0" width="1555.4" height="353.0" preserveAspectRatio="xMidYMin meet"><rect x="0" y="0" width="1555.4" height="353.0" fill="#fffdf8" rx="14" ry="14" /><line x1="777.7" y1="42.5" x2="643.8" y2="93.5" stroke="#7b7f89" stroke-width="1.2" stroke-linecap="round" /><line x1="643.8" y1="130.5" x2="326.9" y2="181.5" stroke="#7b7f89" stroke-width="1.2" stroke-linecap="round" /><line x1="326.9" y1="218.5" x2="71.0" y2="263.0" stroke="#7b7f89" stroke-width="1.2" stroke-linecap="round" /><line x1="326.9" y1="218.5" x2="193.0" y2="263.0" stroke="#7b7f89" stroke-width="1.2" stroke-linecap="round" /><line x1="326.9" y1="218.5" x2="315.0" y2="263.0" stroke="#7b7f89" stroke-width="1.2" stroke-linecap="round" /><line x1="326.9" y1="218.5" x2="448.9" y2="263.0" stroke="#7b7f89" stroke-width="1.2" stroke-linecap="round" /><line x1="326.9" y1="218.5" x2="582.8" y2="263.0" stroke="#7b7f89" stroke-width="1.2" stroke-linecap="round" /><line x1="643.8" y1="130.5" x2="960.7" y2="181.5" stroke="#7b7f89" stroke-width="1.2" stroke-linecap="round" /><line x1="960.7" y1="218.5" x2="704.8" y2="263.0" stroke="#7b7f89" stroke-width="1.2" stroke-linecap="round" /><line x1="960.7" y1="218.5" x2="826.8" y2="263.0" stroke="#7b7f89" stroke-width="1.2" stroke-linecap="round" /><line x1="960.7" y1="218.5" x2="948.8" y2="263.0" stroke="#7b7f89" stroke-width="1.2" stroke-linecap="round" /><line x1="960.7" y1="218.5" x2="1082.7" y2="263.0" stroke="#7b7f89" stroke-width="1.2" stroke-linecap="round" /><line x1="960.7" y1="218.5" x2="1216.6" y2="263.0" stroke="#7b7f89" stroke-width="1.2" stroke-linecap="round" /><line x1="777.7" y1="42.5" x2="1338.6" y2="87.0" stroke="#7b7f89" stroke-width="1.2" stroke-linecap="round" /><line x1="777.7" y1="42.5" x2="1472.5" y2="87.0" stroke="#7b7f89" stroke-width="1.2" stroke-linecap="round" /><ellipse cx="71.0" cy="288.0" rx="47.0" ry="27.0" fill="#e5e8ee" stroke="#7c8391" stroke-width="1.3" /><text x="71.0" y="282.0" text-anchor="middle" font-family="Avenir Next, Segoe UI, sans-serif" font-size="11.5" font-weight="700" fill="#172033">Navigate</text><text x="71.0" y="296.0" text-anchor="middle" font-family="Avenir Next, Segoe UI, sans-serif" font-size="10" font-weight="500" fill="#172033">pantry</text><ellipse cx="193.0" cy="288.0" rx="47.0" ry="27.0" fill="#e5e8ee" stroke="#7c8391" stroke-width="1.3" /><text x="193.0" y="282.0" text-anchor="middle" font-family="Avenir Next, Segoe UI, sans-serif" font-size="11.5" font-weight="700" fill="#172033">Open</text><text x="193.0" y="296.0" text-anchor="middle" font-family="Avenir Next, Segoe UI, sans-serif" font-size="10" font-weight="500" fill="#172033">pantry</text><ellipse cx="315.0" cy="288.0" rx="47.0" ry="27.0" fill="#e5e8ee" stroke="#7c8391" stroke-width="1.3" /><text x="315.0" y="282.0" text-anchor="middle" font-family="Avenir Next, Segoe UI, sans-serif" font-size="11.5" font-weight="700" fill="#172033">Detect</text><text x="315.0" y="296.0" text-anchor="middle" font-family="Avenir Next, Segoe UI, sans-serif" font-size="10" font-weight="500" fill="#172033">bread</text><ellipse cx="448.9" cy="288.0" rx="58.9" ry="27.0" fill="#d8dde5" stroke="#717784" stroke-width="1.3" /><text x="448.9" y="282.0" text-anchor="middle" font-family="Avenir Next, Segoe UI, sans-serif" font-size="11.5" font-weight="700" fill="#172033">Bread Found In</text><text x="448.9" y="296.0" text-anchor="middle" font-family="Avenir Next, Segoe UI, sans-serif" font-size="10" font-weight="500" fill="#172033">Pantry?</text><ellipse cx="582.8" cy="288.0" rx="47.0" ry="27.0" fill="#e5e8ee" stroke="#7c8391" stroke-width="1.3" /><text x="582.8" y="282.0" text-anchor="middle" font-family="Avenir Next, Segoe UI, sans-serif" font-size="11.5" font-weight="700" fill="#172033">Pick</text><text x="582.8" y="296.0" text-anchor="middle" font-family="Avenir Next, Segoe UI, sans-serif" font-size="10" font-weight="500" fill="#172033">bread</text><rect x="279.9" y="179.5" width="94.0" height="41.0" rx="9" ry="9" fill="#ffd24f" stroke="#9a7400" stroke-width="1.3" /><text x="326.9" y="200.0" text-anchor="middle" font-family="Avenir Next, Segoe UI, sans-serif" font-size="11.5" font-weight="700" fill="#172033">Sequence</text><ellipse cx="704.8" cy="288.0" rx="47.0" ry="27.0" fill="#e5e8ee" stroke="#7c8391" stroke-width="1.3" /><text x="704.8" y="282.0" text-anchor="middle" font-family="Avenir Next, Segoe UI, sans-serif" font-size="11.5" font-weight="700" fill="#172033">Navigate</text><text x="704.8" y="296.0" text-anchor="middle" font-family="Avenir Next, Segoe UI, sans-serif" font-size="10" font-weight="500" fill="#172033">fridge</text><ellipse cx="826.8" cy="288.0" rx="47.0" ry="27.0" fill="#e5e8ee" stroke="#7c8391" stroke-width="1.3" /><text x="826.8" y="282.0" text-anchor="middle" font-family="Avenir Next, Segoe UI, sans-serif" font-size="11.5" font-weight="700" fill="#172033">Open</text><text x="826.8" y="296.0" text-anchor="middle" font-family="Avenir Next, Segoe UI, sans-serif" font-size="10" font-weight="500" fill="#172033">fridge</text><ellipse cx="948.8" cy="288.0" rx="47.0" ry="27.0" fill="#e5e8ee" stroke="#7c8391" stroke-width="1.3" /><text x="948.8" y="282.0" text-anchor="middle" font-family="Avenir Next, Segoe UI, sans-serif" font-size="11.5" font-weight="700" fill="#172033">Detect</text><text x="948.8" y="296.0" text-anchor="middle" font-family="Avenir Next, Segoe UI, sans-serif" font-size="10" font-weight="500" fill="#172033">bread</text><ellipse cx="1082.7" cy="288.0" rx="58.9" ry="27.0" fill="#d8dde5" stroke="#717784" stroke-width="1.3" /><text x="1082.7" y="282.0" text-anchor="middle" font-family="Avenir Next, Segoe UI, sans-serif" font-size="11.5" font-weight="700" fill="#172033">Bread Found In</text><text x="1082.7" y="296.0" text-anchor="middle" font-family="Avenir Next, Segoe UI, sans-serif" font-size="10" font-weight="500" fill="#172033">Fridge?</text><ellipse cx="1216.6" cy="288.0" rx="47.0" ry="27.0" fill="#e5e8ee" stroke="#7c8391" stroke-width="1.3" /><text x="1216.6" y="282.0" text-anchor="middle" font-family="Avenir Next, Segoe UI, sans-serif" font-size="11.5" font-weight="700" fill="#172033">Pick</text><text x="1216.6" y="296.0" text-anchor="middle" font-family="Avenir Next, Segoe UI, sans-serif" font-size="10" font-weight="500" fill="#172033">bread</text><rect x="913.7" y="179.5" width="94.0" height="41.0" rx="9" ry="9" fill="#ffd24f" stroke="#9a7400" stroke-width="1.3" /><text x="960.7" y="200.0" text-anchor="middle" font-family="Avenir Next, Segoe UI, sans-serif" font-size="11.5" font-weight="700" fill="#172033">Sequence</text><polygon points="617.5,91.5 670.1,91.5 690.8,112.0 670.1,132.5 617.5,132.5 596.8,112.0" fill="#69e0eb" stroke="#197c85" stroke-width="1.3" /><text x="643.8" y="112.0" text-anchor="middle" font-family="Avenir Next, Segoe UI, sans-serif" font-size="11.5" font-weight="700" fill="#172033">Selector</text><ellipse cx="1338.6" cy="112.0" rx="47.0" ry="27.0" fill="#e5e8ee" stroke="#7c8391" stroke-width="1.3" /><text x="1338.6" y="106.0" text-anchor="middle" font-family="Avenir Next, Segoe UI, sans-serif" font-size="11.5" font-weight="700" fill="#172033">Navigate</text><text x="1338.6" y="120.0" text-anchor="middle" font-family="Avenir Next, Segoe UI, sans-serif" font-size="10" font-weight="500" fill="#172033">table</text><ellipse cx="1472.5" cy="112.0" rx="58.9" ry="27.0" fill="#e5e8ee" stroke="#7c8391" stroke-width="1.3" /><text x="1472.5" y="106.0" text-anchor="middle" font-family="Avenir Next, Segoe UI, sans-serif" font-size="11.5" font-weight="700" fill="#172033">Place</text><text x="1472.5" y="120.0" text-anchor="middle" font-family="Avenir Next, Segoe UI, sans-serif" font-size="10" font-weight="500" fill="#172033">table tabletop</text><rect x="730.7" y="3.5" width="94.0" height="41.0" rx="9" ry="9" fill="#ffd24f" stroke="#9a7400" stroke-width="1.3" /><text x="777.7" y="24.0" text-anchor="middle" font-family="Avenir Next, Segoe UI, sans-serif" font-size="11.5" font-weight="700" fill="#172033">Sequence</text></svg>